<mxfile host="app.diagrams.net" modified="2023-09-12T10:05:37.020Z" agent="Mozilla/5.0 (Windows NT 10.0; Win64; x64) AppleWebKit/537.36 (KHTML, like Gecko) Chrome/114.0.0.0 YaBrowser/23.7.1.1140 Yowser/2.5 Safari/537.36" etag="OVC7t_UoR6GiDUpV8FGA" version="21.7.2" type="github">
  <diagram id="C5RBs43oDa-KdzZeNtuy" name="Page-1">
    <mxGraphModel dx="1155" dy="633" grid="1" gridSize="10" guides="1" tooltips="1" connect="1" arrows="1" fold="1" page="1" pageScale="1" pageWidth="827" pageHeight="1169" math="0" shadow="0">
      <root>
        <mxCell id="WIyWlLk6GJQsqaUBKTNV-0" />
        <mxCell id="WIyWlLk6GJQsqaUBKTNV-1" parent="WIyWlLk6GJQsqaUBKTNV-0" />
        <mxCell id="iFnS5FM6BaK6YA-YNaK7-3" style="edgeStyle=orthogonalEdgeStyle;rounded=0;orthogonalLoop=1;jettySize=auto;html=1;exitX=0.5;exitY=1;exitDx=0;exitDy=0;entryX=0.5;entryY=0;entryDx=0;entryDy=0;" edge="1" parent="WIyWlLk6GJQsqaUBKTNV-1" target="iFnS5FM6BaK6YA-YNaK7-0">
          <mxGeometry relative="1" as="geometry">
            <mxPoint x="220" y="120" as="sourcePoint" />
          </mxGeometry>
        </mxCell>
        <mxCell id="iFnS5FM6BaK6YA-YNaK7-5" style="edgeStyle=orthogonalEdgeStyle;rounded=0;orthogonalLoop=1;jettySize=auto;html=1;exitX=0.5;exitY=1;exitDx=0;exitDy=0;entryX=0.5;entryY=0;entryDx=0;entryDy=0;" edge="1" parent="WIyWlLk6GJQsqaUBKTNV-1" source="WIyWlLk6GJQsqaUBKTNV-7" target="iFnS5FM6BaK6YA-YNaK7-2">
          <mxGeometry relative="1" as="geometry" />
        </mxCell>
        <mxCell id="WIyWlLk6GJQsqaUBKTNV-7" value="result&amp;nbsp; = (a + b + c + d) / 4" style="rounded=1;whiteSpace=wrap;html=1;fontSize=12;glass=0;strokeWidth=1;shadow=0;" parent="WIyWlLk6GJQsqaUBKTNV-1" vertex="1">
          <mxGeometry x="160" y="264" width="120" height="40" as="geometry" />
        </mxCell>
        <mxCell id="WIyWlLk6GJQsqaUBKTNV-11" value="End" style="rounded=1;whiteSpace=wrap;html=1;fontSize=12;glass=0;strokeWidth=1;shadow=0;" parent="WIyWlLk6GJQsqaUBKTNV-1" vertex="1">
          <mxGeometry x="160" y="454" width="120" height="40" as="geometry" />
        </mxCell>
        <mxCell id="iFnS5FM6BaK6YA-YNaK7-4" style="edgeStyle=orthogonalEdgeStyle;rounded=0;orthogonalLoop=1;jettySize=auto;html=1;exitX=0.5;exitY=1;exitDx=0;exitDy=0;entryX=0.5;entryY=0;entryDx=0;entryDy=0;" edge="1" parent="WIyWlLk6GJQsqaUBKTNV-1" source="iFnS5FM6BaK6YA-YNaK7-0" target="WIyWlLk6GJQsqaUBKTNV-7">
          <mxGeometry relative="1" as="geometry" />
        </mxCell>
        <mxCell id="iFnS5FM6BaK6YA-YNaK7-0" value="Ð° = ..&lt;br&gt;b = ..&lt;br&gt;c = ..&amp;nbsp;&lt;br&gt;d = .." style="shape=parallelogram;perimeter=parallelogramPerimeter;whiteSpace=wrap;html=1;fixedSize=1;" vertex="1" parent="WIyWlLk6GJQsqaUBKTNV-1">
          <mxGeometry x="160" y="160" width="120" height="60" as="geometry" />
        </mxCell>
        <mxCell id="iFnS5FM6BaK6YA-YNaK7-6" value="" style="edgeStyle=orthogonalEdgeStyle;rounded=0;orthogonalLoop=1;jettySize=auto;html=1;exitX=0.508;exitY=0.838;exitDx=0;exitDy=0;exitPerimeter=0;" edge="1" parent="WIyWlLk6GJQsqaUBKTNV-1" source="iFnS5FM6BaK6YA-YNaK7-2" target="WIyWlLk6GJQsqaUBKTNV-11">
          <mxGeometry relative="1" as="geometry" />
        </mxCell>
        <mxCell id="iFnS5FM6BaK6YA-YNaK7-2" value="result =&amp;nbsp;" style="shape=document;whiteSpace=wrap;html=1;boundedLbl=1;" vertex="1" parent="WIyWlLk6GJQsqaUBKTNV-1">
          <mxGeometry x="160" y="350" width="120" height="80" as="geometry" />
        </mxCell>
        <mxCell id="iFnS5FM6BaK6YA-YNaK7-12" style="edgeStyle=orthogonalEdgeStyle;rounded=0;orthogonalLoop=1;jettySize=auto;html=1;exitX=0.5;exitY=1;exitDx=0;exitDy=0;entryX=0.5;entryY=0;entryDx=0;entryDy=0;" edge="1" parent="WIyWlLk6GJQsqaUBKTNV-1" source="iFnS5FM6BaK6YA-YNaK7-8" target="iFnS5FM6BaK6YA-YNaK7-11">
          <mxGeometry relative="1" as="geometry" />
        </mxCell>
        <mxCell id="iFnS5FM6BaK6YA-YNaK7-8" value="result = 1&lt;br&gt;N = ..&lt;br&gt;i = 1" style="rounded=1;whiteSpace=wrap;html=1;fontSize=12;glass=0;strokeWidth=1;shadow=0;" vertex="1" parent="WIyWlLk6GJQsqaUBKTNV-1">
          <mxGeometry x="500" y="110" width="120" height="50" as="geometry" />
        </mxCell>
        <mxCell id="iFnS5FM6BaK6YA-YNaK7-9" value="Start" style="ellipse;whiteSpace=wrap;html=1;" vertex="1" parent="WIyWlLk6GJQsqaUBKTNV-1">
          <mxGeometry x="160" y="70" width="120" height="50" as="geometry" />
        </mxCell>
        <mxCell id="iFnS5FM6BaK6YA-YNaK7-14" style="edgeStyle=orthogonalEdgeStyle;rounded=0;orthogonalLoop=1;jettySize=auto;html=1;exitX=0.5;exitY=1;exitDx=0;exitDy=0;entryX=0.5;entryY=0;entryDx=0;entryDy=0;" edge="1" parent="WIyWlLk6GJQsqaUBKTNV-1" source="iFnS5FM6BaK6YA-YNaK7-10" target="iFnS5FM6BaK6YA-YNaK7-8">
          <mxGeometry relative="1" as="geometry" />
        </mxCell>
        <mxCell id="iFnS5FM6BaK6YA-YNaK7-10" value="Start" style="ellipse;whiteSpace=wrap;html=1;" vertex="1" parent="WIyWlLk6GJQsqaUBKTNV-1">
          <mxGeometry x="500" y="30" width="120" height="50" as="geometry" />
        </mxCell>
        <mxCell id="iFnS5FM6BaK6YA-YNaK7-16" style="edgeStyle=orthogonalEdgeStyle;rounded=0;orthogonalLoop=1;jettySize=auto;html=1;exitX=0.5;exitY=1;exitDx=0;exitDy=0;entryX=0.5;entryY=0;entryDx=0;entryDy=0;" edge="1" parent="WIyWlLk6GJQsqaUBKTNV-1" source="iFnS5FM6BaK6YA-YNaK7-11" target="iFnS5FM6BaK6YA-YNaK7-13">
          <mxGeometry relative="1" as="geometry" />
        </mxCell>
        <mxCell id="iFnS5FM6BaK6YA-YNaK7-17" value="Yes" style="edgeLabel;html=1;align=center;verticalAlign=middle;resizable=0;points=[];" vertex="1" connectable="0" parent="iFnS5FM6BaK6YA-YNaK7-16">
          <mxGeometry x="-0.1528" y="1" relative="1" as="geometry">
            <mxPoint as="offset" />
          </mxGeometry>
        </mxCell>
        <mxCell id="iFnS5FM6BaK6YA-YNaK7-22" style="edgeStyle=orthogonalEdgeStyle;rounded=0;orthogonalLoop=1;jettySize=auto;html=1;exitX=1;exitY=0.5;exitDx=0;exitDy=0;entryX=0.5;entryY=0;entryDx=0;entryDy=0;" edge="1" parent="WIyWlLk6GJQsqaUBKTNV-1" source="iFnS5FM6BaK6YA-YNaK7-11" target="iFnS5FM6BaK6YA-YNaK7-21">
          <mxGeometry relative="1" as="geometry">
            <Array as="points">
              <mxPoint x="635" y="250" />
              <mxPoint x="635" y="420" />
              <mxPoint x="560" y="420" />
            </Array>
          </mxGeometry>
        </mxCell>
        <mxCell id="iFnS5FM6BaK6YA-YNaK7-23" value="No" style="edgeLabel;html=1;align=center;verticalAlign=middle;resizable=0;points=[];" vertex="1" connectable="0" parent="iFnS5FM6BaK6YA-YNaK7-22">
          <mxGeometry x="-0.3741" y="-1" relative="1" as="geometry">
            <mxPoint as="offset" />
          </mxGeometry>
        </mxCell>
        <mxCell id="iFnS5FM6BaK6YA-YNaK7-11" value="i &amp;lt;= N" style="rhombus;whiteSpace=wrap;html=1;" vertex="1" parent="WIyWlLk6GJQsqaUBKTNV-1">
          <mxGeometry x="505" y="200" width="110" height="100" as="geometry" />
        </mxCell>
        <mxCell id="iFnS5FM6BaK6YA-YNaK7-18" style="edgeStyle=orthogonalEdgeStyle;rounded=0;orthogonalLoop=1;jettySize=auto;html=1;exitX=0.5;exitY=1;exitDx=0;exitDy=0;entryX=0;entryY=0.5;entryDx=0;entryDy=0;" edge="1" parent="WIyWlLk6GJQsqaUBKTNV-1" source="iFnS5FM6BaK6YA-YNaK7-13" target="iFnS5FM6BaK6YA-YNaK7-11">
          <mxGeometry relative="1" as="geometry" />
        </mxCell>
        <mxCell id="iFnS5FM6BaK6YA-YNaK7-13" value="result&amp;nbsp; = result * i&lt;br&gt;i ++" style="rounded=1;whiteSpace=wrap;html=1;fontSize=12;glass=0;strokeWidth=1;shadow=0;" vertex="1" parent="WIyWlLk6GJQsqaUBKTNV-1">
          <mxGeometry x="500" y="348" width="120" height="40" as="geometry" />
        </mxCell>
        <mxCell id="iFnS5FM6BaK6YA-YNaK7-19" value="End" style="rounded=1;whiteSpace=wrap;html=1;fontSize=12;glass=0;strokeWidth=1;shadow=0;" vertex="1" parent="WIyWlLk6GJQsqaUBKTNV-1">
          <mxGeometry x="500" y="545" width="120" height="40" as="geometry" />
        </mxCell>
        <mxCell id="iFnS5FM6BaK6YA-YNaK7-20" value="" style="edgeStyle=orthogonalEdgeStyle;rounded=0;orthogonalLoop=1;jettySize=auto;html=1;exitX=0.508;exitY=0.838;exitDx=0;exitDy=0;exitPerimeter=0;" edge="1" parent="WIyWlLk6GJQsqaUBKTNV-1" source="iFnS5FM6BaK6YA-YNaK7-21" target="iFnS5FM6BaK6YA-YNaK7-19">
          <mxGeometry relative="1" as="geometry" />
        </mxCell>
        <mxCell id="iFnS5FM6BaK6YA-YNaK7-21" value="result =&amp;nbsp;" style="shape=document;whiteSpace=wrap;html=1;boundedLbl=1;" vertex="1" parent="WIyWlLk6GJQsqaUBKTNV-1">
          <mxGeometry x="500" y="441" width="120" height="80" as="geometry" />
        </mxCell>
      </root>
    </mxGraphModel>
  </diagram>
</mxfile>
